<?xml version="1.0" encoding="UTF-8" standalone="no"?>
<svg
   xmlns:dc="http://purl.org/dc/elements/1.1/"
   xmlns:cc="http://creativecommons.org/ns#"
   xmlns:rdf="http://www.w3.org/1999/02/22-rdf-syntax-ns#"
   xmlns:svg="http://www.w3.org/2000/svg"
   xmlns="http://www.w3.org/2000/svg"
   viewBox="0 0 1440 1440"
   height="100"
   width="100"
   xml:space="preserve"
   id="svg2"
   version="1.1"><metadata
     id="metadata8"><rdf:RDF><cc:Work
         rdf:about=""><dc:format>image/svg+xml</dc:format><dc:type
           rdf:resource="http://purl.org/dc/dcmitype/StillImage" /></cc:Work></rdf:RDF></metadata><defs
     id="defs6" /><g
     transform="matrix(1.3333333,0,0,-1.3333333,0,1440)"
     id="g10"><g
       transform="translate(30.9996,900.6417)"
       id="g12"><path
         id="path14"
         style="fill:#b3b3b3;fill-opacity:1;fill-rule:nonzero;stroke:none"
         d="M 0,0 80.169,-664.747 507.913,-899.841 937.858,-661.57 1018.001,3.16 507.373,178.557 Z" /></g><g
       transform="translate(998.3887,865.3823)"
       id="g16"><path
         id="path18"
         style="fill:#a6120d;fill-opacity:1;fill-rule:nonzero;stroke:none"
         d="m 0,0 -461.197,157.28 v -965.693 l 386.509,213.911 z" /></g><g
       transform="translate(87.9219,862.5483)"
       id="g20"><path
         id="path22"
         style="fill:#dd1b16;fill-opacity:1;fill-rule:nonzero;stroke:none"
         d="m 0,0 68.721,-594.511 380.54,-211.068 v 965.71 z" /></g><g
       transform="translate(651.8662,538.4678)"
       id="g24"><path
         id="path26"
         style="fill:#f2f2f2;fill-opacity:1;fill-rule:nonzero;stroke:none"
         d="M 0,0 -113.835,225.367 -207.215,3.878 h 92.532 z m 12.277,-29.892 -126.952,-59.37 h -133.81 l -62.907,-157.323 -116.986,-2.175 313.703,697.892 z" /></g><g
       transform="translate(537.1831,987.6001)"
       id="g28"><path
         id="path30"
         style="fill:#b3b3b3;fill-opacity:1;fill-rule:nonzero;stroke:none"
         d="M 0,0 0.839,-223.766 106.796,-445.425 H 0.231 L 0,-538.249 l 147.347,-0.145 68.859,-159.515 111.942,-2.072 z" /></g></g></svg>